PathFileType	4	(X/Y/Z)	/Users/niels/Desktop/University/Third Semester/Perception and Action/Exam/Gymnastics Motion Tracking/Code for Gym Tracking/Scripts/Analyzed Data/Start Salto/st_salto_bad_id9_2_Sports2D/st_salto_bad_id9_2_Sports2D_px_person00.trc
DataRate	CameraRate	NumFrames	NumMarkers	Units	OrigDataRate	OrigDataStartFrame	OrigNumFrames
29.871244635193133	29.871244635193133	9	22	m	29.871244635193133	174	233
Frame#	Time	Hip			RHip			RKnee			RAnkle			RBigToe			RSmallToe			RHeel			LHip			LKnee			LAnkle			LBigToe			LSmallToe			LHeel			Neck			Head			Nose			RShoulder			RElbow			RWrist			LShoulder			LElbow			LWrist		
		X1	Y1	Z1	X2	Y2	Z2	X3	Y3	Z3	X4	Y4	Z4	X5	Y5	Z5	X6	Y6	Z6	X7	Y7	Z7	X8	Y8	Z8	X9	Y9	Z9	X10	Y10	Z10	X11	Y11	Z11	X12	Y12	Z12	X13	Y13	Z13	X14	Y14	Z14	X15	Y15	Z15	X16	Y16	Z16	X17	Y17	Z17	X18	Y18	Z18	X19	Y19	Z19	X20	Y20	Z20	X21	Y21	Z21	X22	Y22	Z22
174	5.825	1.1871789913344533	-0.22736533890814542	0.0	1.195886056174109	-0.22189659591957517	0.0	1.0342308880786624	-0.17597055341583015	0.0	1.064763107760523	-0.02901078652529991	0.0	1.0051538366629678	-0.0024405965454407995	0.0	1.0127179769380659	0.000870102564620955	0.0	1.0713988357318942	-0.0240217916810795	0.0	1.1676242469323996	-0.23545750959365944	0.0	1.0315839218797884	-0.17598000245705017	0.0	1.0570785268813963	-0.03245584136072007	0.0	0.999393941348422	-0.00943341122556644	0.0	0.9903877517929303	-0.005676546830347955	0.0	1.0753187249355223	-0.02949708506540175	0.0	1.078778717356683	-0.3580143220960253	0.0	1.0115119349175583	-0.39908262618592993	0.0	1.0365942129046393	-0.3541053685404443	0.0	1.1074498244884712	-0.35204107905087656	0.0	1.1527879158379337	-0.2326912492740228	0.0	1.1102860616082022	-0.16140412312462796	0.0	1.0736436507919742	-0.3405619623794724	0.0	1.0938344629837562	-0.27044260310739837	0.0	1.0763483035087187	-0.221834146046787	0.0
175	5.858477011494253	1.1984532982735463	-0.23244976359092703	0.0	1.207408104667626	-0.22845917782435118	0.0	1.0494619221226325	-0.1687203734625862	0.0	1.092729522868004	-0.026181220621380445	0.0	1.0359725256916779	0.004149411136849137	0.0	1.0450622535177994	0.007856417377528424	0.0	1.099997527002658	-0.022511239708294866	0.0	1.1812632233964793	-0.23696740439796557	0.0	1.0469388025715403	-0.16768234596794354	0.0	1.0855670584029389	-0.029143952831662157	0.0	1.0292475162181371	-0.0005011760308811574	0.0	1.0162101000592483	0.0038444324085110623	0.0	1.1056056220259134	-0.029052188101276855	0.0	1.0784468702024628	-0.35256894712296666	0.0	1.0091976105833995	-0.38748133041765764	0.0	1.037115505035711	-0.3431468095848438	0.0	1.1063813019486728	-0.34804802216301395	0.0	1.1621615610954041	-0.23286752482068407	0.0	1.1259862731901313	-0.16033932001305767	0.0	1.0764582089258092	-0.33404935474640873	0.0	1.0997480189776998	-0.2657446094771606	0.0	1.0812085914858023	-0.21081724745547775	0.0
176	5.891954022988506	1.2092230311255054	-0.23773919595294762	0.0	1.217827258216457	-0.23511871699611467	0.0	1.0658369707564883	-0.16218675214024406	0.0	1.1215722589357846	-0.025028394781757796	0.0	1.0692940875617125	0.008933566340443684	0.0	1.0811034633034218	0.01257870885625478	0.0	1.129486224368537	-0.022197798169916353	0.0	1.1947880999828209	-0.23821998178705375	0.0	1.0624586585745506	-0.1605465222086641	0.0	1.1149326468764358	-0.0278566225963763	0.0	1.0623858211600943	0.007534025655002265	0.0	1.0467798159896775	0.012961942242678506	0.0	1.1364834033763611	-0.029427769261480066	0.0	1.0787296215950104	-0.3467813969611399	0.0	1.0077573285347288	-0.3748005474122945	0.0	1.038146261621027	-0.33139051602277514	0.0	1.1065667790824851	-0.342918315802719	0.0	1.1719429687910097	-0.2331968545132127	0.0	1.1425643893025794	-0.16016866268493476	0.0	1.0797213750673151	-0.32757484917446644	0.0	1.1069394408658202	-0.260307222545762	0.0	1.0874970286152768	-0.19744632945986193	0.0
177	5.925431034482759	1.2192850800377124	-0.24299215532174023	0.0	1.227114864673174	-0.24171080622982158	0.0	1.0828576149151086	-0.15655509339831242	0.0	1.150522981764247	-0.025483660520870973	0.0	1.1043913431303007	0.012547916958232824	0.0	1.1191346031729204	0.015107536988522893	0.0	1.1591416180599239	-0.023253353295001777	0.0	1.2075656310376113	-0.2396799555535175	0.0	1.0778684547818271	-0.15484615790157977	0.0	1.1442435258645909	-0.028706353417246498	0.0	1.09769567317386	0.013766894025895293	0.0	1.082200383896769	0.02098700193313352	0.0	1.1669282173960653	-0.03099552169241298	0.0	1.0798038255693228	-0.3408292729833993	0.0	1.0070392848552074	-0.36133774789185025	0.0	1.0401536215816924	-0.31951395908750707	0.0	1.107929948765131	-0.33720813987824905	0.0	1.1818639678157528	-0.23363348486181681	0.0	1.1593946883231414	-0.16065983080409016	0.0	1.0835219690767162	-0.3215458986855334	0.0	1.1151560355818682	-0.25512947852516543	0.0	1.096940994893956	-0.18444329004150797	0.0
178	5.958908045977012	1.228561518780752	-0.2480459618041785	0.0	1.2354255935112142	-0.24783526116820412	0.0	1.0997125702175246	-0.1521074891987852	0.0	1.1786598079413597	-0.027607974070861	0.0	1.1400099272923665	0.014890752633745251	0.0	1.1566309272881774	0.015659291062039334	0.0	1.1880849964482398	-0.02600958521782602	0.0	1.2189899793932537	-0.24168268701977333	0.0	1.0929572771348437	-0.15076965918932966	0.0	1.1723315807584438	-0.031786057262209774	0.0	1.1338037484848398	0.017356017978705122	0.0	1.1209967880335163	0.026370002076835902	0.0	1.1957639529170645	-0.034273411878419875	0.0	1.0817054533635224	-0.3349254296863719	0.0	1.0071544233566867	-0.3477017140568529	0.0	1.0435065059629725	-0.30823670475321646	0.0	1.110140417050205	-0.3314917452833622	0.0	1.1914865789786668	-0.23424988975200836	0.0	1.1757615769281182	-0.16156881811927537	0.0	1.0879235232547748	-0.31629736372879147	0.0	1.1243132978515349	-0.25106832503655624	0.0	1.1102027329296913	-0.17400756400208348	0.0
179	5.992385057471265	1.2371993412363125	-0.2530150168372543	0.0	1.2431298803519777	-0.25308594081210584	0.0	1.1158861220115566	-0.14894832794060114	0.0	1.2055507497347049	-0.03156034598634378	0.0	1.1749394961351662	0.015313617348326447	0.0	1.1916713690236849	0.014287366158291478	0.0	1.215936910251514	-0.030820360103306466	0.0	1.2288512383124623	-0.24439465887953923	0.0	1.1078629117115644	-0.14818973237919048	0.0	1.1984905147415668	-0.03706204960836363	0.0	1.1697925780090959	0.017765017143157272	0.0	1.1610347358438766	0.027201869705959	0.0	1.2225961047463911	-0.0397017368578906	0.0	1.0842835634628045	-0.32916847263666815	0.0	1.0083935376068172	-0.3344741210093525	0.0	1.0483258515385843	-0.2979185324458672	0.0	1.1127783998469194	-0.3260919796100328	0.0	1.2004945553956694	-0.23515070535331498	0.0	1.1913486345835635	-0.16278605915712324	0.0	1.0928815293961933	-0.3121148853405264	0.0	1.13462506427965	-0.24851258152690353	0.0	1.125928656501101	-0.1670674567506585	0.0
180	6.025862068965518	1.245422778621718	-0.2582384404430996	0.0	1.2506154180468803	-0.2573533444165967	0.0	1.131532045780221	-0.14689591990139814	0.0	1.231308118004885	-0.037481232990468405	0.0	1.20815656473791	0.013230346726732081	0.0	1.2236976399863428	0.010784347155452198	0.0	1.242812079076262	-0.03793674342572716	0.0	1.23731000090447	-0.2478906013963246	0.0	1.122953919101399	-0.14677994125846425	0.0	1.2227006519723866	-0.044409967752071726	0.0	1.2049786208857685	0.014653794457181587	0.0	1.2003717125299462	0.022331553058799743	0.0	1.2479350535041587	-0.04760597631721332	0.0	1.0873030889201294	-0.32353182025508925	0.0	1.0109971675582152	-0.3219151313976898	0.0	1.0544853791558757	-0.28855514713967895	0.0	1.1155770150956665	-0.3209894497798121	0.0	1.2088355120310443	-0.2363677954146928	0.0	1.2062943256075638	-0.16434225505553313	0.0	1.0981518670831947	-0.3093588753486357	0.0	1.1462990335193144	-0.2474122034638517	0.0	1.1412807657133508	-0.16359938804877902	0.0
181	6.059339080459771	1.2533212399708613	-0.2640639795356148	0.0	1.2580989305969617	-0.26085695272089915	0.0	1.1472940349965204	-0.14558371141570428	0.0	1.256319134707024	-0.04534770777849246	0.0	1.239143309710657	0.008343427091407504	0.0	1.253280677442862	0.004883343815978684	0.0	1.2690274364774081	-0.04734913615061276	0.0	1.2445946471612852	-0.25222820472243446	0.0	1.1385784920615496	-0.14623929452207354	0.0	1.2454797255226973	-0.05362902271523711	0.0	1.2386340906551367	0.007965361630967688	0.0	1.2376999916282594	0.012484421276556957	0.0	1.2726253421689848	-0.05804115184569854	0.0	1.0906228354607759	-0.3179652653123709	0.0	1.0149753013453442	-0.3098989112555884	0.0	1.0616623628512172	-0.2799282339231162	0.0	1.1185677856570673	-0.31589041258782175	0.0	1.2166843113699846	-0.2378501920180234	0.0	1.2209318168742636	-0.16630083469200121	0.0	1.1033375910802128	-0.3083686119579388	0.0	1.1591156029753023	-0.24753034478098368	0.0	1.1544278887502235	-0.16310047087506113	0.0
182	6.092816091954023	1.2608015034645657	-0.2706071507095741	0.0	1.2655840989227802	-0.26398511866993707	0.0	1.16377896577504	-0.14467340039077292	0.0	1.2808459362533189	-0.05492894420289691	0.0	1.2680287538788257	0.0008345549720637487	0.0	1.2812283840796914	-0.003387104214262566	0.0	1.2947449138923486	-0.058680632989139274	0.0	1.2508985161402666	-0.2574853819996801	0.0	1.154900635655164	-0.14637597195304086	0.0	1.2675214751969137	-0.06437377918995288	0.0	1.2700111458647254	-0.0017807659646282478	0.0	1.2723459285321357	-0.00012080518445564476	0.0	1.297187184884382	-0.07052850795493759	0.0	1.0942655229399112	-0.3124986156488629	0.0	1.0200921852566265	-0.29813793089537943	0.0	1.0694363692388136	-0.27180093593399657	0.0	1.1219922163849592	-0.31042845148814996	0.0	1.2242562272498336	-0.23950634699600323	0.0	1.235444011852367	-0.1687330470567436	0.0	1.1080078667012851	-0.3091496381417201	0.0	1.1722129907052228	-0.24865337190927556	0.0	1.166174101970297	-0.16491643713581916	0.0
